<svg width="34" height="34" viewBox="0 0 34 34" fill="none" xmlns="http://www.w3.org/2000/svg">
<g clip-path="url(#clip0_5_10)">
<path d="M17.0015 33.0034C15.3875 33.0034 13.8702 32.3745 12.7289 31.2334L2.76947 21.2739C1.62823 20.1328 0.999725 18.6152 0.999756 17.0015C0.999725 15.3877 1.62823 13.8701 2.76944 12.729L12.7289 2.76953C13.8702 1.62842 15.3875 0.999512 17.0015 0.999512C18.6154 0.999512 20.1327 1.62842 21.2739 2.76953L31.2335 12.729C32.3747 13.8701 33.0032 15.3877 33.0032 17.0015C33.0032 18.6152 32.3747 20.1328 31.2335 21.2739L21.274 31.2334C20.1327 32.3745 18.6154 33.0034 17.0015 33.0034Z" fill="white"/>
<path d="M17.0014 1.99951C15.6546 1.99951 14.3884 2.52441 13.436 3.47656L3.47652 13.436C2.52419 14.3887 1.99971 15.6548 1.99971 17.0015C1.99971 18.3481 2.52419 19.6143 3.47658 20.5669L13.4361 30.5264C14.3884 31.4785 15.6546 32.0034 17.0014 32.0034C18.3483 32.0034 19.6144 31.4785 20.5668 30.5264L30.5264 20.5669C31.4787 19.6143 32.0032 18.3481 32.0032 17.0015C32.0032 15.6548 31.4787 14.3887 30.5264 13.436L20.5668 3.47656C19.6144 2.52393 18.3483 1.99951 17.0014 1.99951ZM17.0014 -0.000488281C18.8038 -0.000488281 20.606 0.687012 21.9811 2.0625L31.9406 12.022C34.6907 14.772 34.6907 19.231 31.9406 21.981L21.9811 31.9404C20.606 33.3154 18.8038 34.0034 17.0014 34.0034C15.1992 34.0034 13.3969 33.3154 12.0218 31.9404L2.06236 21.981C-0.68782 19.231 -0.68782 14.772 2.06236 12.022L12.0218 2.0625C13.3969 0.687012 15.1992 -0.000488281 17.0014 -0.000488281Z" fill="#DEB971"/>
<path d="M22.794 20.5211C22.7981 20.4613 22.7895 20.4016 22.769 20.3453C22.71 20.1693 22.3 19.985 22.132 19.901C21.655 19.633 21.169 19.3731 20.7 19.1011C20.482 18.9671 20.214 18.7159 19.954 18.7159C19.443 18.7159 18.697 20.232 18.245 20.232C17.9837 20.1777 17.7378 20.0659 17.525 19.9049C16.0691 19.1271 14.8767 17.935 14.099 16.4791C13.9378 16.266 13.8261 16.0195 13.772 15.7579C13.772 15.3059 15.288 14.5579 15.288 14.0499C15.288 13.7899 15.037 13.5223 14.903 13.3043C14.627 12.8353 14.367 12.3491 14.103 11.8721C14.019 11.7051 13.835 11.2939 13.659 11.2349C13.6028 11.2143 13.5428 11.2058 13.483 11.21C13.0836 11.2337 12.6905 11.3218 12.319 11.4703C11.9234 11.7097 11.6128 12.0671 11.431 12.4923C11.1578 12.9665 11.0107 13.5026 11.004 14.0499C11.0655 14.8099 11.2612 15.5534 11.582 16.2452C11.764 16.7568 11.9985 17.2479 12.282 17.711C13.3361 19.3099 14.7041 20.6779 16.303 21.732C16.766 22.0156 17.2574 22.2504 17.769 22.4322C18.4607 22.7531 19.2039 22.9484 19.964 23.0098C20.5113 23.0028 21.0476 22.8561 21.522 22.5831C21.9473 22.4015 22.3048 22.0907 22.544 21.6949C22.6903 21.3197 22.7747 20.9233 22.794 20.5211Z" fill="#DEB971"/>
</g>
<defs>
<clipPath id="clip0_5_10">
<rect width="34.003" height="34.004" fill="white"/>
</clipPath>
</defs>
</svg>
