<svg width="91" height="91" viewBox="0 0 91 91" fill="none" xmlns="http://www.w3.org/2000/svg">
<path d="M45.3553 89.2107C43.0848 89.2107 40.9503 88.3267 39.3448 86.7214L3.98969 51.366C2.38416 49.7605 1.5 47.626 1.5 45.3555C1.5 43.0847 2.38416 40.9504 3.98962 39.3452L39.3448 3.98975C40.9504 2.38403 43.0849 1.5 45.3553 1.5C47.6257 1.5 49.7603 2.38403 51.3657 3.98975L86.7211 39.345C88.3266 40.9504 89.2107 43.0847 89.2107 45.3555C89.2107 47.626 88.3266 49.7605 86.7211 51.3657L51.3657 86.7217C49.7604 88.3267 47.6258 89.2107 45.3553 89.2107Z" fill="#F2F1E3"/>
<path d="M45.3553 3C43.4856 3 41.7278 3.72803 40.4055 5.05054L5.05016 40.406C3.72807 41.7278 2.99998 43.4856 2.99998 45.3555C2.99998 47.2253 3.72813 48.9832 5.05034 50.3052L40.4053 85.6606C41.7275 86.9827 43.4855 87.7107 45.3553 87.7107C47.2251 87.7107 48.983 86.9827 50.305 85.6609L85.6605 50.3052C86.9826 48.9832 87.7107 47.2253 87.7107 45.3555C87.7107 43.4856 86.9826 41.7278 85.6604 40.4058L50.3049 5.05029C48.9828 3.72803 47.225 3 45.3553 3ZM45.3553 0C47.9145 0 50.4737 0.976318 52.4264 2.9292L87.7818 38.2844C91.687 42.1892 91.687 48.5215 87.7818 52.4265L52.4264 87.7822C50.4737 89.7346 47.9145 90.7107 45.3553 90.7107C42.7961 90.7107 40.2368 89.7346 38.2842 87.7822L2.929 52.4265C-0.976334 48.5215 -0.976334 42.1892 2.929 38.2844L38.2842 2.9292C40.2368 0.976318 42.7961 0 45.3553 0Z" fill="#C45858"/>
<path d="M40.0684 53.2136C40.0684 53.6375 39.9428 54.0519 39.7073 54.4043C39.4718 54.7567 39.1371 55.0314 38.7455 55.1936C38.3539 55.3558 37.923 55.3981 37.5073 55.3154C37.0916 55.2327 36.7098 55.0287 36.4101 54.729C36.1104 54.4293 35.9063 54.0475 35.8236 53.6318C35.7409 53.2161 35.7834 52.7851 35.9456 52.3936C36.1078 52.002 36.3824 51.6674 36.7348 51.4319C37.0872 51.1964 37.5016 51.0708 37.9254 51.0708C38.4926 51.0747 39.0354 51.3016 39.4364 51.7026C39.8374 52.1037 40.0645 52.6465 40.0684 53.2136ZM33.6404 44.6426V44.1426C33.6658 44.0111 33.7172 43.8861 33.7914 43.7747L37.0554 40.5107C37.1669 40.4366 37.292 40.3851 37.4234 40.3596H40.0684V44.6448L33.6404 44.6426ZM55.0664 53.2136C55.0664 53.6375 54.9407 54.0519 54.7052 54.4043C54.4697 54.7567 54.1349 55.0314 53.7433 55.1936C53.3516 55.3558 52.9207 55.3982 52.5049 55.3154C52.0892 55.2327 51.7074 55.0286 51.4077 54.7288C51.1081 54.429 50.904 54.0469 50.8215 53.6311C50.7389 53.2153 50.7815 52.7844 50.9438 52.3928C51.1062 52.0013 51.381 51.6668 51.7335 51.4314C52.0861 51.196 52.5005 51.0706 52.9244 51.0708C53.4913 51.075 54.0339 51.3021 54.4348 51.7031C54.8356 52.1041 55.0625 52.6466 55.0664 53.2136ZM59.3554 35.0017C59.3533 34.7183 59.2398 34.447 59.0394 34.2466C58.839 34.0462 58.5678 33.9328 58.2844 33.9307H41.1394C40.856 33.9328 40.5848 34.0462 40.3844 34.2466C40.184 34.447 40.0705 34.7183 40.0684 35.0017V38.2156H37.3904C36.7132 38.2477 36.0682 38.514 35.5654 38.9688L32.2514 42.2827C31.3304 43.2037 31.4984 44.5256 31.4984 45.7146V51.0708C31.215 51.0729 30.9438 51.1863 30.7434 51.3867C30.543 51.5871 30.4295 51.8582 30.4274 52.1416C30.4274 53.3806 31.7334 53.2136 32.5704 53.2136H33.6414C33.6414 54.3501 34.0929 55.4401 34.8965 56.2437C35.7001 57.0472 36.7899 57.4988 37.9264 57.4988C39.0628 57.4988 40.1528 57.0472 40.9564 56.2437C41.76 55.4401 42.2114 54.3501 42.2114 53.2136H48.6394C48.6394 54.3501 49.0909 55.4401 49.8945 56.2437C50.6981 57.0472 51.7879 57.4988 52.9244 57.4988C54.0608 57.4988 55.1508 57.0472 55.9543 56.2437C56.7579 55.4401 57.2094 54.3501 57.2094 53.2136C58.0464 53.2136 59.3514 53.3806 59.3514 52.1416L59.3554 35.0017Z" fill="#06090E"/>
</svg>
