<svg width="91" height="91" viewBox="0 0 91 91" fill="none" xmlns="http://www.w3.org/2000/svg">
<g clip-path="url(#clip0_26_2)">
<path d="M45.3549 89.2109C43.0845 89.2109 40.9498 88.3269 39.3445 86.7219L3.98914 51.3667C2.38379 49.761 1.49963 47.6265 1.49963 45.3557C1.49963 43.0852 2.38367 40.9509 3.98914 39.3457L39.3446 3.98975C40.9501 2.38428 43.0845 1.5 45.3549 1.5C47.6252 1.5 49.7599 2.38428 51.3654 3.98975L86.7206 39.3455C88.326 40.9509 89.2102 43.0852 89.2102 45.3557C89.2102 47.6265 88.326 49.761 86.7206 51.3667L51.3654 86.7222C49.76 88.3269 47.6254 89.2109 45.3549 89.2109Z" fill="#884C4C"/>
<path d="M45.3549 3C43.4853 3 41.7274 3.72827 40.4053 5.05054L5.04971 40.4062C3.72769 41.7283 2.99966 43.4861 2.99966 45.3557C2.99966 47.2258 3.72781 48.9836 5.04984 50.3059L40.4051 85.6611C41.7272 86.9829 43.485 87.7109 45.3549 87.7109C47.2248 87.7109 48.9828 86.9829 50.3047 85.6614L85.6599 50.3059C86.9821 48.9836 87.7102 47.2258 87.7102 45.3557C87.7102 43.4861 86.9822 41.7283 85.6599 40.4062L50.3047 5.05054C48.9825 3.72827 47.2246 3 45.3549 3ZM45.3549 0C47.9141 0 50.4733 0.976318 52.4261 2.9292L87.7813 38.2849C91.6866 42.1897 91.6866 48.5217 87.7813 52.4272L52.4261 87.7827C50.4733 89.7349 47.9141 90.7109 45.3549 90.7109C42.7957 90.7109 40.2365 89.7349 38.284 87.7827L2.9285 52.4272C-0.976654 48.5217 -0.976654 42.1897 2.9285 38.2849L38.284 2.9292C40.2365 0.976318 42.7957 0 45.3549 0Z" fill="#DEB971"/>
<g clip-path="url(#clip1_26_2)">
<path d="M35.6667 57V43.6667C34.9333 43.6667 34.3056 43.4056 33.7833 42.8833C33.2611 42.3611 33 41.7333 33 41V33.9333C33 33.6667 33.0889 33.4444 33.2667 33.2667C33.4444 33.0889 33.6667 33 33.9333 33C34.2 33 34.4222 33.0889 34.6 33.2667C34.7778 33.4444 34.8667 33.6667 34.8667 33.9333V38.3333H36.0667V33.9333C36.0667 33.6667 36.1556 33.4444 36.3333 33.2667C36.5111 33.0889 36.7333 33 37 33C37.2667 33 37.4889 33.0889 37.6667 33.2667C37.8444 33.4444 37.9333 33.6667 37.9333 33.9333V38.3333H39.1333V33.9333C39.1333 33.6667 39.2222 33.4444 39.4 33.2667C39.5778 33.0889 39.8 33 40.0667 33C40.3333 33 40.5556 33.0889 40.7333 33.2667C40.9111 33.4444 41 33.6667 41 33.9333V41C41 41.7333 40.7389 42.3611 40.2167 42.8833C39.6944 43.4056 39.0667 43.6667 38.3333 43.6667V57H35.6667ZM45 57V43.5333C44.0667 43.0889 43.3889 42.3944 42.9667 41.45C42.5444 40.5056 42.3333 39.5111 42.3333 38.4667C42.3333 37.0667 42.6833 35.8056 43.3833 34.6833C44.0833 33.5611 45.0667 33 46.3333 33C47.6 33 48.5833 33.5611 49.2833 34.6833C49.9833 35.8056 50.3333 37.0667 50.3333 38.4667C50.3333 39.5111 50.1222 40.5056 49.7 41.45C49.2778 42.3944 48.6 43.0889 47.6667 43.5333V57H45ZM51.6667 57V33C53.1333 33 54.3889 33.5222 55.4333 34.5667C56.4778 35.6111 57 36.8667 57 38.3333V46.3333H54.3333V57H51.6667Z" fill="#06090E"/>
</g>
</g>
<defs>
<clipPath id="clip0_26_2">
<rect width="90.711" height="90.711" fill="white"/>
</clipPath>
<clipPath id="clip1_26_2">
<rect width="24" height="24" fill="white" transform="translate(33 33)"/>
</clipPath>
</defs>
</svg>
