<svg width="14" height="14" viewBox="0 0 14 14" fill="none" xmlns="http://www.w3.org/2000/svg">
<g clip-path="url(#clip0_9_26)">
<path d="M7.33798 11.2C7.33798 12.666 5.94697 13.169 4.69897 13.169C3.35897 13.169 1.54898 12.549 1.54898 10.941C1.54898 9.19799 3.59298 8.76299 4.96698 8.76299C5.10686 8.76021 5.24679 8.76589 5.38599 8.77999C6.24099 9.37399 7.33798 10.027 7.33798 11.2ZM6.33298 3.97899C6.33298 5.00099 5.93899 5.82999 4.79199 5.82999C3.30099 5.82999 2.46298 3.83599 2.46298 2.56299C2.43342 2.32558 2.45294 2.08463 2.52032 1.85507C2.58771 1.62551 2.70154 1.41224 2.85474 1.22848C3.00793 1.04472 3.19726 0.894381 3.41095 0.786787C3.62464 0.679193 3.85813 0.616637 4.09698 0.602995C5.64598 0.602995 6.33298 2.70599 6.33298 3.97899ZM5.233 -5.72205e-06C4.70623 0.000992338 4.181 0.0573003 3.66599 0.167994C2.90522 0.327711 2.22008 0.738183 1.72037 1.33364C1.22065 1.92909 0.935299 2.67505 0.910004 3.45199C0.916413 3.84145 1.00034 4.22573 1.15692 4.58238C1.3135 4.93903 1.53957 5.26091 1.82193 5.52922C2.10429 5.79753 2.43731 6.00688 2.80148 6.14506C3.16566 6.28323 3.55372 6.34746 3.94299 6.33399C4.13901 6.33213 4.33471 6.3181 4.52899 6.29199C4.42683 6.51967 4.3646 6.76322 4.345 7.01199C4.38255 7.47537 4.57079 7.91371 4.88098 8.25999C3.38098 8.30199 1.05298 8.68699 0.306976 10.195C0.117894 10.5431 0.0118033 10.9301 -0.00302124 11.326C-0.00302124 13.27 2.25898 13.94 3.82498 13.94C5.09098 14.0021 6.33784 13.6122 7.34299 12.84C7.70108 12.5576 7.99204 12.1993 8.19489 11.7908C8.39773 11.3823 8.5074 10.934 8.51599 10.478C8.51599 8.13199 6.00299 7.70499 6.00299 6.62399C6.00299 5.51799 7.879 5.35099 7.879 3.13099C7.89128 2.64808 7.78373 2.16964 7.56595 1.73845C7.34817 1.30725 7.02693 0.936728 6.63098 0.659994H7.76398L8.89499 -0.00200653L5.233 -5.72205e-06ZM13.933 2.14499H11.788V-0.00500488H10.716V2.14499H8.57098V3.217H10.716V5.36199H11.788V3.217H13.933V2.14499Z" fill="#DEB971"/>
</g>
<defs>
<clipPath id="clip0_9_26">
<rect width="13.939" height="13.939" fill="white"/>
</clipPath>
</defs>
</svg>
