<svg width="13" height="13" viewBox="0 0 13 13" fill="none" xmlns="http://www.w3.org/2000/svg">
<g clip-path="url(#clip0_9_30)">
<path d="M11.409 10.873C11.4094 10.9402 11.3964 11.0068 11.3709 11.069C11.3454 11.1312 11.3078 11.1877 11.2602 11.2352C11.2127 11.2827 11.1562 11.3204 11.094 11.3459C11.0318 11.3714 10.9652 11.3844 10.898 11.384H1.94302C1.87581 11.3844 1.80916 11.3714 1.74698 11.3459C1.6848 11.3204 1.62831 11.2827 1.58078 11.2352C1.53325 11.1877 1.49563 11.1312 1.47009 11.069C1.44455 11.0068 1.43161 10.9402 1.43201 10.873V5.44499H2.61301C2.5013 5.80096 2.44465 6.17191 2.44501 6.54499C2.44501 7.60586 2.86643 8.62327 3.61658 9.37342C4.36672 10.1236 5.38414 10.545 6.44501 10.545C7.50587 10.545 8.52329 10.1236 9.27344 9.37342C10.0236 8.62327 10.445 7.60586 10.445 6.54499C10.4453 6.17192 10.3886 5.80098 10.277 5.44499H11.408L11.409 10.873ZM9.02802 6.40799C9.04514 6.92265 8.90821 7.43069 8.6348 7.86705C8.36139 8.3034 7.96393 8.6482 7.49335 8.85726C7.02276 9.06633 6.50049 9.13014 5.99341 9.04053C5.48633 8.95091 5.01755 8.71195 4.64713 8.35426C4.2767 7.99657 4.02147 7.53643 3.91418 7.03279C3.80689 6.52916 3.85241 6.00496 4.04489 5.52735C4.23737 5.04974 4.56807 4.64047 4.9946 4.35197C5.42113 4.06347 5.92406 3.90888 6.439 3.90799C7.11368 3.89675 7.76526 4.1537 8.25067 4.62242C8.73608 5.09114 9.01566 5.73333 9.02802 6.40799ZM11.407 3.39199C11.4067 3.54521 11.3458 3.69207 11.2374 3.80041C11.1291 3.90875 10.9822 3.96973 10.829 3.96999H9.371C9.21779 3.96973 9.07092 3.90875 8.96259 3.80041C8.85425 3.69207 8.79326 3.54521 8.793 3.39199V2.00999C8.79326 1.85678 8.85425 1.70991 8.96259 1.60158C9.07092 1.49324 9.21779 1.43226 9.371 1.43199H10.828C10.9812 1.43226 11.1281 1.49324 11.2364 1.60158C11.3448 1.70991 11.4057 1.85678 11.406 2.00999L11.407 3.39199ZM12.864 1.64899C12.8616 1.21211 12.687 0.793803 12.3781 0.484879C12.0692 0.175954 11.6509 0.00135661 11.214 -0.00100708H1.647C1.21012 0.00135661 0.791804 0.175954 0.48288 0.484879C0.173956 0.793803 -0.000627037 1.21211 -0.00299072 1.64899V11.216C-0.000627037 11.6529 0.173956 12.0712 0.48288 12.3801C0.791804 12.689 1.21012 12.8636 1.647 12.866H11.214C11.6509 12.8636 12.0692 12.689 12.3781 12.3801C12.687 12.0712 12.8616 11.6529 12.864 11.216V1.64899Z" fill="#DEB971"/>
</g>
<defs>
<clipPath id="clip0_9_30">
<rect width="12.867" height="12.867" fill="white"/>
</clipPath>
</defs>
</svg>
