<svg width="34" height="34" viewBox="0 0 34 34" fill="none" xmlns="http://www.w3.org/2000/svg">
<g clip-path="url(#clip0_5_16)">
<path d="M17.0015 33.0034C15.3875 33.0034 13.8702 32.3745 12.7289 31.2334L2.76944 21.2749C0.413975 18.918 0.413883 15.0845 2.76944 12.729L12.7289 2.76953C13.8702 1.62842 15.3875 0.999512 17.0015 0.999512C18.6154 0.999512 20.1327 1.62842 21.2739 2.76953L31.2335 12.729C33.589 15.0845 33.589 18.918 31.2333 21.2749L21.274 31.2334C20.1327 32.3745 18.6154 33.0034 17.0015 33.0034Z" fill="white"/>
<path d="M17.0014 1.99951C15.6546 1.99951 14.3884 2.52441 13.436 3.47656L3.47652 13.436C1.51079 15.4019 1.51094 18.6011 3.47652 20.5679L13.4361 30.5264C14.3884 31.4785 15.6546 32.0034 17.0014 32.0034C18.3483 32.0034 19.6144 31.4785 20.5669 30.5264L30.526 20.5679C32.4919 18.6011 32.4921 15.4019 30.5264 13.436L20.5668 3.47656C19.6144 2.52393 18.3483 1.99951 17.0014 1.99951ZM17.0014 -0.000488281C18.8038 -0.000488281 20.606 0.687012 21.9811 2.0625L31.9406 12.022C34.6907 14.772 34.6907 19.2305 31.9406 21.9819L21.9811 31.9404C20.606 33.3154 18.8038 34.0034 17.0014 34.0034C15.1992 34.0034 13.3969 33.3154 12.0218 31.9404L2.06236 21.9819C-0.68782 19.2305 -0.68782 14.772 2.06236 12.022L12.0218 2.0625C13.3969 0.687012 15.1992 -0.000488281 17.0014 -0.000488281Z" fill="#DEB971"/>
<path d="M23.987 15.0132C23.77 15.2503 23.5268 15.4618 23.262 15.644C22.052 16.463 20.834 17.29 19.653 18.144C19.0539 18.6888 18.3028 19.0377 17.5 19.144H17.486C16.6832 19.0377 15.9321 18.6888 15.333 18.144C14.152 17.281 12.933 16.462 11.733 15.644C11.4646 15.4638 11.2188 15.2521 11.001 15.0132V20.7681C11.0018 21.0755 11.1243 21.37 11.3416 21.5874C11.559 21.8048 11.8536 21.9274 12.161 21.9282H22.83C23.1374 21.9274 23.432 21.8048 23.6494 21.5874C23.8667 21.37 23.9892 21.0755 23.99 20.7681L23.987 15.0132ZM23.987 12.8828C23.9849 12.5758 23.862 12.282 23.6449 12.0649C23.4278 11.8479 23.134 11.7252 22.827 11.7231H12.159C11.9931 11.724 11.8292 11.7598 11.6782 11.8286C11.5271 11.8974 11.3924 11.9975 11.2828 12.1221C11.1732 12.2467 11.0913 12.3932 11.0424 12.5518C10.9934 12.7103 10.9787 12.8773 10.999 13.042C11.0733 13.4147 11.2221 13.7686 11.4363 14.0825C11.6506 14.3964 11.926 14.6641 12.246 14.8691C13.369 15.6521 14.507 16.4341 15.631 17.2241C16.102 17.5501 16.9 18.2168 17.487 18.2168H17.501C18.088 18.2168 18.885 17.5501 19.356 17.2241C20.479 16.4341 21.617 15.6511 22.748 14.8691C23.0946 14.6568 23.387 14.3669 23.602 14.022C23.8171 13.6771 23.9489 13.2875 23.987 12.8828Z" fill="#DEB971"/>
</g>
<defs>
<clipPath id="clip0_5_16">
<rect width="34.003" height="34.004" fill="white"/>
</clipPath>
</defs>
</svg>
