<svg width="14" height="11" viewBox="0 0 14 11" fill="none" xmlns="http://www.w3.org/2000/svg">
<g clip-path="url(#clip0_9_28)">
<path d="M13.202 1.274C12.7064 1.49046 12.1813 1.63168 11.644 1.693C12.2085 1.35718 12.6312 0.827086 12.833 0.202004C12.3028 0.517456 11.7218 0.738407 11.116 0.855004C10.7446 0.459121 10.2629 0.183981 9.73318 0.0652816C9.20351 -0.0534181 8.65038 -0.0101982 8.14557 0.189332C7.64076 0.388862 7.20757 0.735493 6.90219 1.18425C6.59681 1.63302 6.43336 2.16319 6.43301 2.706C6.43412 2.91442 6.45656 3.12217 6.5 3.326C5.42353 3.2713 4.37057 2.99092 3.40945 2.50304C2.44834 2.01516 1.60052 1.33068 0.92099 0.494004C0.573438 1.09049 0.466642 1.79712 0.622375 2.46967C0.778109 3.14223 1.18464 3.73 1.759 4.113C1.32999 4.09672 0.910924 3.97919 0.536011 3.77V3.803C0.535175 4.42826 0.750888 5.03451 1.14648 5.5187C1.54208 6.0029 2.09313 6.33516 2.70599 6.459C2.47346 6.51943 2.23424 6.55034 1.99399 6.551C1.82284 6.54988 1.65204 6.53584 1.483 6.509C1.65669 7.04631 1.99389 7.51595 2.44748 7.85229C2.90107 8.18863 3.4484 8.37487 4.013 8.385C3.05503 9.13681 1.87174 9.54403 0.653992 9.54101C0.435846 9.5425 0.217818 9.53115 0.00100708 9.507C1.16451 10.252 2.50699 10.6702 3.88773 10.7178C5.26846 10.7654 6.6366 10.4406 7.84863 9.77751C9.06067 9.11443 10.072 8.13746 10.7765 6.94905C11.4811 5.76064 11.8529 4.40456 11.853 3.023C11.853 2.906 11.853 2.789 11.845 2.671C12.3726 2.28488 12.8314 1.8126 13.202 1.274Z" fill="#DEB971"/>
</g>
<defs>
<clipPath id="clip0_9_28">
<rect width="13.202" height="10.723" fill="white"/>
</clipPath>
</defs>
</svg>
