<svg width="34" height="34" viewBox="0 0 34 34" fill="none" xmlns="http://www.w3.org/2000/svg">
<g clip-path="url(#clip0_5_4)">
<path d="M17.0015 33.0029C15.3875 33.0029 13.8701 32.3745 12.7289 31.2334L2.76945 21.2744C0.41362 18.9185 0.413589 15.085 2.76942 12.729L12.7289 2.76953C13.8702 1.62842 15.3875 0.999512 17.0015 0.999512C18.6154 0.999512 20.1327 1.62842 21.2739 2.76953L31.2334 12.729C33.5893 15.085 33.5893 18.9185 31.2334 21.2744L21.274 31.2334C20.1328 32.3745 18.6154 33.0029 17.0015 33.0029Z" fill="white"/>
<path d="M17.0014 1.99951C15.6546 1.99951 14.3884 2.52393 13.436 3.47656L3.47652 13.436C1.51054 15.4019 1.5106 18.6011 3.47655 20.5674L13.4359 30.5264C14.3883 31.4785 15.6546 32.0029 17.0014 32.0029C18.3483 32.0029 19.6145 31.4785 20.5669 30.5264L30.5263 20.5674C32.4923 18.6011 32.4923 15.4019 30.5264 13.436L20.5667 3.47656C19.6144 2.52393 18.3483 1.99951 17.0014 1.99951ZM17.0014 -0.000488281C18.8038 -0.000488281 20.606 0.687012 21.9811 2.0625L31.9406 12.022C34.6907 14.772 34.6907 19.231 31.9406 21.9814L21.9811 31.9404C20.606 33.3154 18.8038 34.0029 17.0014 34.0029C15.1992 34.0029 13.3969 33.3154 12.0218 31.9404L2.06236 21.9814C-0.68782 19.231 -0.68782 14.772 2.06236 12.022L12.0218 2.0625C13.3969 0.687012 15.1992 -0.000488281 17.0014 -0.000488281Z" fill="#DEB971"/>
<path d="M18.505 14.69C18.5054 14.6547 18.4987 14.6197 18.4854 14.587C18.4721 14.5543 18.4524 14.5246 18.4274 14.4996C18.4024 14.4746 18.3727 14.4548 18.34 14.4415C18.3073 14.4282 18.2723 14.4215 18.237 14.4219H17.699C17.6637 14.4215 17.6286 14.4282 17.5959 14.4415C17.5632 14.4548 17.5336 14.4746 17.5086 14.4996C17.4836 14.5246 17.4639 14.5543 17.4506 14.587C17.4372 14.6197 17.4306 14.6547 17.431 14.69V17.6392H15.555C15.5197 17.6388 15.4847 17.6454 15.452 17.6588C15.4193 17.6721 15.3896 17.6919 15.3646 17.7169C15.3396 17.7418 15.3199 17.7716 15.3066 17.8043C15.2933 17.837 15.2866 17.872 15.287 17.9073V18.4429C15.2866 18.4783 15.2933 18.5133 15.3066 18.546C15.3199 18.5787 15.3396 18.6084 15.3646 18.6334C15.3896 18.6583 15.4193 18.6782 15.452 18.6915C15.4847 18.7048 15.5197 18.7114 15.555 18.711H18.236C18.2713 18.7114 18.3063 18.7048 18.339 18.6915C18.3717 18.6782 18.4014 18.6583 18.4264 18.6334C18.4514 18.6084 18.4711 18.5787 18.4844 18.546C18.4977 18.5133 18.5044 18.4783 18.504 18.4429L18.505 14.69ZM21.99 17.6392C21.99 18.5405 21.7227 19.4216 21.222 20.171C20.7213 20.9204 20.0096 21.5043 19.1769 21.8492C18.3442 22.1941 17.4279 22.2843 16.544 22.1085C15.66 21.9326 14.848 21.4987 14.2107 20.8614C13.5734 20.2241 13.1394 19.4119 12.9636 18.5279C12.7877 17.6439 12.878 16.7278 13.2229 15.8951C13.5678 15.0624 14.1518 14.3509 14.9012 13.8502C15.6506 13.3494 16.5317 13.0821 17.433 13.0821C18.6412 13.0834 19.7995 13.5637 20.6538 14.418C21.5081 15.2724 21.9887 16.431 21.99 17.6392ZM23.866 17.6392C23.866 16.3667 23.4887 15.1226 22.7817 14.0645C22.0747 13.0065 21.0698 12.1819 19.8942 11.6949C18.7185 11.2079 17.4249 11.0804 16.1768 11.3287C14.9287 11.5769 13.7823 12.1896 12.8825 13.0894C11.9827 13.9892 11.3699 15.1358 11.1216 16.3839C10.8734 17.6319 11.0008 18.9255 11.4878 20.1011C11.9747 21.2768 12.7994 22.2819 13.8575 22.9888C14.9155 23.6958 16.1595 24.0733 17.432 24.0733C19.1383 24.0731 20.7747 23.3946 21.9812 22.1881C23.1878 20.9815 23.8657 19.3456 23.866 17.6392Z" fill="#DEB971"/>
</g>
<defs>
<clipPath id="clip0_5_4">
<rect width="34.003" height="34.003" fill="white"/>
</clipPath>
</defs>
</svg>
